<svg width="28" height="27" viewBox="0 0 28 27" fill="none" xmlns="http://www.w3.org/2000/svg">
<path d="M27.4737 13.5C27.4737 20.9558 21.3235 27 13.7368 27C6.15019 27 0 20.9558 0 13.5C0 6.04416 6.15019 0 13.7368 0C21.3235 0 27.4737 6.04416 27.4737 13.5Z" fill="#6279E5"/>
<path d="M27.2368 27L21.3158 22.2632L14.2105 27H27.2368Z" fill="#6279E5"/>
<path d="M17.3065 3.54492C17.3065 3.54492 17.4879 5.76288 18.4053 6.68033C19.3228 7.59778 21.5407 7.77915 21.5407 7.77915C21.5407 7.77915 19.3228 7.96052 18.4053 8.87797C17.4879 9.79542 17.3065 12.0134 17.3065 12.0134C17.3065 12.0134 17.1251 9.79542 16.2077 8.87797C15.2902 7.96052 13.0723 7.77915 13.0723 7.77915C13.0723 7.77915 15.2902 7.59778 16.2077 6.68033C17.1251 5.76288 17.3065 3.54492 17.3065 3.54492Z" fill="white"/>
<path d="M9.89627 7.77856C9.89627 7.77856 10.1683 11.1055 11.5445 12.4817C12.9207 13.8579 16.2476 14.1299 16.2476 14.1299C16.2476 14.1299 12.9207 14.402 11.5445 15.7781C10.1683 17.1543 9.89627 20.4813 9.89627 20.4813C9.89627 20.4813 9.62422 17.1543 8.24804 15.7781C6.87187 14.402 3.54492 14.1299 3.54492 14.1299C3.54492 14.1299 6.87187 13.8579 8.24804 12.4817C9.62421 11.1055 9.89627 7.77856 9.89627 7.77856Z" fill="white"/>
<path d="M17.3065 16.2463C17.3065 16.2463 17.4426 17.9098 18.1306 18.5979C18.8187 19.286 20.4822 19.422 20.4822 19.422C20.4822 19.422 18.8187 19.558 18.1306 20.2461C17.4426 20.9342 17.3065 22.5977 17.3065 22.5977C17.3065 22.5977 17.1705 20.9342 16.4824 20.2461C15.7943 19.558 14.1309 19.422 14.1309 19.422C14.1309 19.422 15.7943 19.286 16.4824 18.5979C17.1705 17.9098 17.3065 16.2463 17.3065 16.2463Z" fill="white"/>
</svg>
