<svg width="16" height="16" viewBox="0 0 16 16" fill="none" xmlns="http://www.w3.org/2000/svg">
<path d="M6.49687 9.20625L4.74469 7.45406C4.62019 7.32956 4.46756 7.26731 4.28681 7.26731C4.10606 7.26731 3.946 7.33581 3.80663 7.47281C3.68225 7.60019 3.62006 7.75412 3.62006 7.93462C3.62006 8.115 3.68375 8.26744 3.81113 8.39194L6.04481 10.6444C6.17369 10.7717 6.324 10.8354 6.49575 10.8354C6.6675 10.8354 6.81856 10.7717 6.94894 10.6444L11.3764 6.21244C11.5164 6.07544 11.5864 5.91731 11.5864 5.73806C11.5864 5.55881 11.5164 5.39956 11.3764 5.26031C11.2394 5.13581 11.0774 5.07669 10.8904 5.08294C10.7034 5.08919 10.5465 5.15456 10.4197 5.27906L6.49687 9.20625ZM7.61269 15.2287C6.56944 15.2287 5.58481 15.0295 4.65881 14.631C3.73294 14.2325 2.92425 13.6875 2.23275 12.996C1.54125 12.3045 0.99625 11.496 0.59775 10.5705C0.19925 9.645 0 8.66056 0 7.61719C0 6.56144 0.19925 5.57056 0.59775 4.64456C0.99625 3.71869 1.541 2.91306 2.232 2.22769C2.923 1.54219 3.73137 0.999562 4.65712 0.599812C5.58287 0.199937 6.56756 0 7.61119 0C8.66719 0 9.65837 0.199812 10.5847 0.599437C11.511 0.999062 12.3167 1.54137 13.0018 2.22637C13.6871 2.91137 14.2295 3.71687 14.6291 4.64287C15.0289 5.56887 15.2287 6.56012 15.2287 7.61662C15.2287 8.66037 15.0288 9.64519 14.6289 10.5711C14.2292 11.4969 13.6866 12.3054 13.0011 12.9966C12.3157 13.6877 11.5102 14.2325 10.5847 14.631C9.65925 15.0295 8.66856 15.2287 7.61269 15.2287ZM7.61212 13.9513C9.37512 13.9513 10.8717 13.3341 12.1018 12.0997C13.3318 10.8652 13.9468 9.37087 13.9468 7.61662C13.9468 5.85362 13.3318 4.35706 12.1018 3.12694C10.8717 1.89694 9.37437 1.28194 7.60987 1.28194C5.85787 1.28194 4.36444 1.89694 3.12956 3.12694C1.89481 4.35706 1.27744 5.85437 1.27744 7.61887C1.27744 9.37087 1.89462 10.8643 3.129 12.0992C4.3635 13.3339 5.85787 13.9513 7.61212 13.9513Z" fill="#121214"/>
</svg>
