<svg width="21" height="21" viewBox="0 0 21 21" fill="none" xmlns="http://www.w3.org/2000/svg">
<path d="M10.1982 1.58765C11.3884 1.58765 12.5052 1.81323 13.5488 2.2644C14.5927 2.71577 15.5018 3.32786 16.2754 4.10132C17.0492 4.87482 17.6619 5.78487 18.1133 6.83081C18.5646 7.87628 18.79 8.99397 18.79 10.1833C18.79 11.3725 18.5647 12.4881 18.1133 13.53C17.6618 14.5726 17.0485 15.4826 16.2744 16.2605C15.5006 17.0382 14.5911 17.6534 13.5459 18.1062C12.501 18.5587 11.384 18.7849 10.1953 18.7849C9.00656 18.7849 7.89076 18.56 6.84863 18.1101C5.80625 17.66 4.89506 17.0442 4.11426 16.2634C3.33346 15.4826 2.71767 14.571 2.26758 13.5281C1.81765 12.4854 1.59277 11.3685 1.59277 10.1785C1.59281 8.98869 1.81768 7.87202 2.26758 6.82886C2.71766 5.78549 3.33308 4.87712 4.11328 4.10327C4.89359 3.32919 5.80525 2.71592 6.84863 2.2644C7.89152 1.81298 9.00804 1.58766 10.1982 1.58765ZM10.1865 2.99585C8.19756 2.99585 6.50159 3.69376 5.09961 5.08765C3.69775 6.48143 2.99613 8.18276 2.99609 10.1912C2.99609 12.1801 3.6973 13.8761 5.09863 15.2781C6.50015 16.6799 8.2007 17.3815 10.1992 17.3816C12.1935 17.3816 13.8896 16.6803 15.2861 15.2791C16.6825 13.8776 17.3818 12.1769 17.3818 10.1785C17.3818 8.18419 16.6839 6.48816 15.29 5.09155C13.8963 3.6951 12.1948 2.99591 10.1865 2.99585ZM10.249 5.93433C10.4367 5.93441 10.591 5.99648 10.7139 6.11987C10.8367 6.24351 10.8983 6.39628 10.8984 6.57983V9.62769H13.7959C13.9835 9.62769 14.1376 9.68811 14.2598 9.80835C14.3817 9.92866 14.4434 10.0825 14.4434 10.2703C14.4433 10.4579 14.3812 10.6123 14.2578 10.7351C14.1341 10.858 13.9806 10.9197 13.7969 10.9197H10.8984V13.7957C10.8984 13.9832 10.8379 14.1374 10.7178 14.2595C10.5975 14.3815 10.4436 14.4431 10.2559 14.4431C10.0682 14.443 9.91385 14.381 9.79102 14.2576C9.66824 14.1339 9.60653 13.9812 9.60645 13.7976V10.9197H6.58203C6.39435 10.9197 6.23937 10.8594 6.11719 10.739C5.99527 10.6187 5.93457 10.4648 5.93457 10.2771C5.93465 10.0895 5.99672 9.93511 6.12012 9.81226C6.24378 9.68948 6.39649 9.62773 6.58008 9.62769H9.60645V6.58179C9.60645 6.39428 9.66693 6.24005 9.78711 6.11792C9.90742 5.99597 10.0613 5.93433 10.249 5.93433Z" fill="white" stroke="white" stroke-width="0.0424528"/>
</svg>
