<svg width="24" height="24" viewBox="0 0 24 24" fill="none" xmlns="http://www.w3.org/2000/svg">
<path d="M6.55286 13.4245V20.2977C6.55286 20.5382 6.47061 20.7403 6.30611 20.904C6.14161 21.0676 5.93853 21.1495 5.69686 21.1495C5.45519 21.1495 5.25361 21.0676 5.09211 20.904C4.93044 20.7403 4.84961 20.5382 4.84961 20.2977V4.70223C4.84961 4.46173 4.93144 4.25865 5.09511 4.09298C5.25878 3.92731 5.46086 3.84448 5.70136 3.84448H13.0159C13.2149 3.84448 13.393 3.90865 13.5504 4.03698C13.7079 4.16515 13.8053 4.3309 13.8426 4.53423L14.1746 5.99448H19.2969C19.5374 5.99448 19.7404 6.07731 19.9061 6.24298C20.0718 6.40865 20.1546 6.61173 20.1546 6.85223V14.6977C20.1546 14.9382 20.0718 15.1403 19.9061 15.304C19.7404 15.4676 19.5374 15.5495 19.2969 15.5495H14.1574C13.9584 15.5495 13.7802 15.4905 13.6229 15.3725C13.4654 15.2546 13.3679 15.0941 13.3306 14.8907L12.9986 13.4245H6.55286ZM14.9219 13.8462H18.4454V7.70373H13.4099C13.211 7.70373 13.0329 7.64065 12.8754 7.51448C12.718 7.38815 12.6207 7.22331 12.5834 7.01998L12.2514 5.55373H6.55286V11.7212H13.7634C13.9622 11.7212 14.1404 11.7801 14.2979 11.898C14.4552 12.016 14.5525 12.1766 14.5899 12.38L14.9219 13.8462Z" fill="white"/>
</svg>
