<svg width="25" height="24" viewBox="0 0 25 24" fill="none" xmlns="http://www.w3.org/2000/svg">
<path d="M3.62479 13H4.62479V20C4.62479 21.103 5.52179 22 6.62479 22H18.6248C19.7278 22 20.6248 21.103 20.6248 20V13H21.6248C21.8225 12.9999 22.0158 12.9412 22.1802 12.8314C22.3447 12.7215 22.4728 12.5653 22.5485 12.3826C22.6241 12.1999 22.6439 11.9989 22.6054 11.8049C22.5668 11.611 22.4716 11.4328 22.3318 11.293L13.3318 2.29296C13.239 2.20001 13.1288 2.12627 13.0075 2.07596C12.8862 2.02565 12.7561 1.99976 12.6248 1.99976C12.4935 1.99976 12.3634 2.02565 12.2421 2.07596C12.1208 2.12627 12.0106 2.20001 11.9178 2.29296L2.91779 11.293C2.77798 11.4328 2.68277 11.611 2.6442 11.8049C2.60564 11.9989 2.62544 12.1999 2.70111 12.3826C2.77678 12.5653 2.90492 12.7215 3.06933 12.8314C3.23374 12.9412 3.42704 12.9999 3.62479 13ZM10.6248 20V15H14.6248V20H10.6248ZM12.6248 4.41396L18.6248 10.414L18.6258 20H16.6248V15C16.6248 13.897 15.7278 13 14.6248 13H10.6248C9.52179 13 8.62479 13.897 8.62479 15V20H6.62479V10.414L12.6248 4.41396Z" fill="white"/>
</svg>
