<svg width="25" height="24" viewBox="0 0 25 24" fill="none" xmlns="http://www.w3.org/2000/svg">
<path d="M12.3748 22.275C11.7963 22.275 11.3053 22.0692 10.9018 21.6575C10.4982 21.246 10.2963 20.741 10.2963 20.1425H14.4538C14.4538 20.741 14.252 21.246 13.8483 21.6575C13.4445 22.0692 12.9533 22.275 12.3748 22.275ZM9.06884 18.5565C8.84467 18.5565 8.65767 18.4809 8.50784 18.3295C8.35817 18.1782 8.28334 17.9907 8.28334 17.767C8.28334 17.5449 8.35859 17.359 8.50909 17.2093C8.65975 17.0596 8.84642 16.9848 9.06909 16.9848H15.6871C15.9081 16.9848 16.0933 17.0611 16.2428 17.2138C16.3922 17.3665 16.4668 17.5538 16.4668 17.7758C16.4668 17.9978 16.3922 18.1835 16.2428 18.3328C16.0933 18.482 15.9081 18.5565 15.6871 18.5565H9.06884ZM8.40834 15.424C7.28434 14.6914 6.38959 13.775 5.72409 12.6748C5.05842 11.5748 4.72559 10.333 4.72559 8.94955C4.72559 6.87738 5.48159 5.08438 6.99359 3.57055C8.50575 2.05688 10.299 1.30005 12.3733 1.30005C14.4477 1.30005 16.2424 2.05688 17.7576 3.57055C19.2729 5.08438 20.0306 6.87738 20.0306 8.94955C20.0306 10.3314 19.7019 11.5728 19.0446 12.6738C18.3874 13.7746 17.4865 14.6914 16.3418 15.424H8.40834ZM9.02584 13.7208H15.7428C16.5402 13.1923 17.1693 12.5077 17.6301 11.667C18.0909 10.8264 18.3213 9.92097 18.3213 8.9508C18.3213 7.3158 17.7388 5.9168 16.5738 4.7538C15.4087 3.5908 14.0091 3.0093 12.3751 3.0093C10.7411 3.0093 9.3415 3.5908 8.17634 4.7538C7.01134 5.9168 6.42884 7.3158 6.42884 8.9508C6.42884 9.92097 6.66017 10.8261 7.12284 11.6663C7.5855 12.5066 8.21984 13.1915 9.02584 13.7208Z" fill="white"/>
</svg>
