<svg width="21" height="21" viewBox="0 0 21 21" fill="none" xmlns="http://www.w3.org/2000/svg">
<path d="M3.86621 2.43652H9.01953C9.21811 2.43655 9.38376 2.50524 9.51855 2.64258C9.65349 2.78027 9.72168 2.94806 9.72168 3.14746C9.72165 3.34688 9.65412 3.51249 9.51953 3.64551C9.38476 3.77849 9.21839 3.8447 9.01953 3.84473H3.84473V16.5322H16.5322V11.3574C16.5322 11.1587 16.5999 10.9922 16.7354 10.8574C16.8708 10.7228 17.0379 10.6553 17.2373 10.6553C17.4367 10.6553 17.6034 10.7227 17.7383 10.8574C17.8733 10.9922 17.9404 11.1587 17.9404 11.3574V16.5107C17.9404 16.8953 17.7995 17.2289 17.5156 17.5117C17.2318 17.7947 16.8968 17.9355 16.5107 17.9355H3.86621C3.48151 17.9355 3.14812 17.7947 2.86523 17.5117C2.58221 17.2288 2.44141 16.8954 2.44141 16.5107V3.86621C2.44143 3.48011 2.58222 3.14518 2.86523 2.86133C3.14808 2.57747 3.48164 2.43652 3.86621 2.43652ZM11.7393 2.43652H17.2334C17.4317 2.43652 17.5986 2.50474 17.7354 2.6416C17.8722 2.77832 17.9404 2.94527 17.9404 3.14355V8.6377C17.9404 8.83626 17.8717 9.00193 17.7344 9.13672C17.5967 9.27166 17.4289 9.33984 17.2295 9.33984C17.0797 9.33983 16.949 9.30154 16.8369 9.22559L16.7314 9.1377C16.5985 9.00293 16.5323 8.83654 16.5322 8.6377V4.84473L16.4961 4.88086L8.7168 12.665C8.57378 12.8055 8.41057 12.8708 8.22656 12.8623C8.04177 12.8538 7.87917 12.7796 7.73828 12.6387C7.59764 12.498 7.52832 12.3351 7.52832 12.1494C7.52833 11.9637 7.59765 11.8008 7.73828 11.6602L15.5537 3.84473H11.7393C11.5405 3.8447 11.374 3.77708 11.2393 3.6416C11.1046 3.50614 11.0371 3.33904 11.0371 3.13965C11.0372 2.94026 11.1046 2.77354 11.2393 2.63867C11.374 2.50361 11.5405 2.43655 11.7393 2.43652Z" fill="white" stroke="white" stroke-width="0.0424528"/>
</svg>
