<svg width="25" height="24" viewBox="0 0 25 24" fill="none" xmlns="http://www.w3.org/2000/svg">
<path d="M12.8626 17.976C11.7709 17.976 10.7251 18.1551 9.72509 18.5135C8.72509 18.8718 7.77509 19.4343 6.87509 20.201V20.4462H18.8751V20.351C18.0418 19.601 17.1043 19.0176 16.0626 18.601C15.0209 18.1843 13.9543 17.976 12.8626 17.976ZM5.42884 19.3565C6.3955 18.4225 7.51575 17.698 8.78959 17.183C10.0633 16.6678 11.4251 16.4102 12.8751 16.4102C14.3251 16.4102 15.6828 16.6658 16.9481 17.177C18.2136 17.688 19.338 18.4105 20.3213 19.3445V5.05373H5.42884V19.3565ZM12.8751 14.2397C11.9171 14.2397 11.1049 13.9066 10.4386 13.2402C9.77242 12.5739 9.43934 11.7617 9.43934 10.8037C9.43934 9.84573 9.77242 9.03465 10.4386 8.37048C11.1049 7.70615 11.9171 7.37398 12.8751 7.37398C13.8331 7.37398 14.6453 7.70615 15.3116 8.37048C15.9778 9.03465 16.3108 9.84573 16.3108 10.8037C16.3108 11.7617 15.9778 12.5739 15.3116 13.2402C14.6453 13.9066 13.8331 14.2397 12.8751 14.2397ZM12.8823 12.674C13.3988 12.674 13.8374 12.4907 14.1981 12.1242C14.5589 11.7579 14.7393 11.3159 14.7393 10.7982C14.7393 10.2806 14.5565 9.8414 14.1908 9.48073C13.8253 9.12006 13.3843 8.93973 12.8678 8.93973C12.3513 8.93973 11.9128 9.12248 11.5521 9.48798C11.1913 9.85348 11.0108 10.2945 11.0108 10.811C11.0108 11.3275 11.1937 11.7671 11.5593 12.13C11.9248 12.4926 12.3658 12.674 12.8823 12.674ZM5.42884 22.1495C4.96884 22.1495 4.57 21.9806 4.23234 21.6427C3.8945 21.3051 3.72559 20.9062 3.72559 20.4462V5.05373C3.72559 4.59207 3.8945 4.19181 4.23234 3.85298C4.57 3.51398 4.96884 3.34448 5.42884 3.34448H7.00009V2.69823C7.00009 2.45906 7.08309 2.25698 7.24909 2.09198C7.41525 1.92698 7.61725 1.84448 7.85509 1.84448C8.09992 1.84448 8.30642 1.92698 8.47459 2.09198C8.64275 2.25698 8.72684 2.45906 8.72684 2.69823V3.34448H17.0233V2.69823C17.0233 2.45906 17.1064 2.25698 17.2726 2.09198C17.4386 1.92698 17.6405 1.84448 17.8783 1.84448C18.1233 1.84448 18.3298 1.92698 18.4978 2.09198C18.666 2.25698 18.7501 2.45906 18.7501 2.69823V3.34448H20.3213C20.783 3.34448 21.1833 3.51398 21.5221 3.85298C21.8611 4.19181 22.0306 4.59207 22.0306 5.05373V20.4462C22.0306 20.9062 21.8611 21.3051 21.5221 21.6427C21.1833 21.9806 20.783 22.1495 20.3213 22.1495H5.42884ZM12.8751 20.4462H18.8751H6.87509H12.8751Z" fill="white"/>
</svg>
