<svg width="20" height="20" viewBox="0 0 20 20" fill="none" xmlns="http://www.w3.org/2000/svg">
<mask id="path-1-inside-1_10624_37110" fill="white">
<path d="M8.70149 18.4579C8.49385 18.4579 8.30948 18.3929 8.14836 18.2629C7.98725 18.1329 7.89281 17.9641 7.86503 17.7563L7.55253 15.7931C7.3085 15.7058 7.04816 15.5829 6.77149 15.4246C6.49482 15.2663 6.25364 15.1034 6.04795 14.9361L4.26128 15.7694C4.05684 15.8561 3.8508 15.8673 3.64316 15.8031C3.43538 15.739 3.27427 15.61 3.15982 15.4163L1.8817 13.12C1.76406 12.9328 1.73038 12.7362 1.78066 12.5302C1.83093 12.3241 1.94434 12.1552 2.12086 12.0236L3.78253 10.7944C3.75809 10.6794 3.74239 10.547 3.73545 10.3973C3.7285 10.2475 3.72503 10.115 3.72503 10C3.72503 9.88503 3.7285 9.75259 3.73545 9.60273C3.74239 9.45301 3.75809 9.32065 3.78253 9.20565L2.12086 7.98148C1.941 7.84982 1.82677 7.68093 1.77816 7.47482C1.72955 7.26884 1.76406 7.07058 1.8817 6.88002L3.15982 4.58378C3.27427 4.39655 3.43455 4.26919 3.64066 4.20169C3.84677 4.13433 4.05198 4.14398 4.25628 4.23065L6.05795 5.06398C6.26031 4.89996 6.49899 4.73961 6.77399 4.58294C7.04899 4.42627 7.3085 4.30954 7.55253 4.23273L7.86503 2.24857C7.89281 2.03759 7.98725 1.86628 8.14836 1.73461C8.30948 1.60294 8.49385 1.53711 8.70149 1.53711H11.2994C11.507 1.53711 11.6914 1.60294 11.8525 1.73461C12.0136 1.86628 12.1081 2.03759 12.1359 2.24857L12.4484 4.2119C12.6924 4.30259 12.9554 4.4228 13.2373 4.57252C13.5193 4.72225 13.7578 4.88607 13.9529 5.06398L15.7396 4.23065C15.9441 4.14398 16.1466 4.13433 16.3473 4.20169C16.5482 4.26919 16.7058 4.39655 16.8202 4.58378L18.124 6.88002C18.2384 7.07058 18.2713 7.27232 18.2227 7.48523C18.1741 7.69829 18.0599 7.86371 17.88 7.98148L16.2134 9.16398C16.2378 9.29287 16.2543 9.43218 16.2629 9.5819C16.2716 9.73176 16.2759 9.87114 16.2759 10C16.2759 10.1289 16.2716 10.2648 16.2629 10.4077C16.2543 10.5505 16.2378 10.6863 16.2134 10.8152L17.88 12.0186C18.0599 12.1363 18.1741 12.3018 18.2227 12.5148C18.2713 12.7277 18.2384 12.9295 18.124 13.12L16.8411 15.4163C16.7266 15.6068 16.5663 15.735 16.3602 15.8006C16.1541 15.8665 15.9489 15.8561 15.7446 15.7694L13.9479 14.9361C13.7423 15.1034 13.5054 15.2689 13.2373 15.4325C12.9693 15.5961 12.7063 15.7163 12.4484 15.7931L12.1359 17.7563C12.1081 17.9641 12.0136 18.1329 11.8525 18.2629C11.6914 18.3929 11.507 18.4579 11.2994 18.4579H8.70149ZM9.12357 17.0386H10.8723L11.169 14.7102C11.6307 14.5991 12.0688 14.4255 12.4834 14.1894C12.8981 13.9533 13.2721 13.6636 13.6054 13.3202L15.8138 14.2786L16.6023 12.8434L14.654 11.4159C14.7095 11.1764 14.7555 10.9404 14.7919 10.7079C14.8283 10.4754 14.8465 10.2395 14.8465 10C14.8465 9.76058 14.8318 9.52461 14.8023 9.29211C14.7729 9.05961 14.7234 8.82364 14.654 8.58419L16.6073 7.15669L15.8138 5.72148L13.6104 6.67982C13.291 6.31204 12.9266 6.00412 12.5171 5.75607C12.1078 5.50801 11.6584 5.35093 11.169 5.28482L10.8773 2.96148H9.12357L8.83691 5.28482C8.35802 5.37871 7.91045 5.54621 7.4942 5.78732C7.07781 6.02843 6.70823 6.32593 6.38545 6.67982L4.18711 5.72148L3.39357 7.15669L5.33691 8.57919C5.28135 8.81864 5.23538 9.05544 5.19899 9.28961C5.1626 9.52378 5.14441 9.76058 5.14441 10C5.14441 10.2395 5.1626 10.4771 5.19899 10.7129C5.23538 10.9488 5.28135 11.1847 5.33691 11.4209L3.39357 12.8434L4.18711 14.2786L6.38545 13.3202C6.72212 13.6602 7.09864 13.95 7.51503 14.1894C7.93128 14.4288 8.37191 14.6041 8.83691 14.7152L9.12357 17.0386ZM9.99045 12.7084C10.7404 12.7084 11.3793 12.4445 11.9071 11.9167C12.4349 11.3889 12.6988 10.75 12.6988 10C12.6988 9.25002 12.4349 8.61114 11.9071 8.08336C11.3793 7.55558 10.7404 7.29169 9.99045 7.29169C9.24045 7.29169 8.60156 7.55558 8.07378 8.08336C7.546 8.61114 7.28211 9.25002 7.28211 10C7.28211 10.75 7.546 11.3889 8.07378 11.9167C8.60156 12.4445 9.24045 12.7084 9.99045 12.7084Z"/>
</mask>
<path d="M8.70149 18.4579C8.49385 18.4579 8.30948 18.3929 8.14836 18.2629C7.98725 18.1329 7.89281 17.9641 7.86503 17.7563L7.55253 15.7931C7.3085 15.7058 7.04816 15.5829 6.77149 15.4246C6.49482 15.2663 6.25364 15.1034 6.04795 14.9361L4.26128 15.7694C4.05684 15.8561 3.8508 15.8673 3.64316 15.8031C3.43538 15.739 3.27427 15.61 3.15982 15.4163L1.8817 13.12C1.76406 12.9328 1.73038 12.7362 1.78066 12.5302C1.83093 12.3241 1.94434 12.1552 2.12086 12.0236L3.78253 10.7944C3.75809 10.6794 3.74239 10.547 3.73545 10.3973C3.7285 10.2475 3.72503 10.115 3.72503 10C3.72503 9.88503 3.7285 9.75259 3.73545 9.60273C3.74239 9.45301 3.75809 9.32065 3.78253 9.20565L2.12086 7.98148C1.941 7.84982 1.82677 7.68093 1.77816 7.47482C1.72955 7.26884 1.76406 7.07058 1.8817 6.88002L3.15982 4.58378C3.27427 4.39655 3.43455 4.26919 3.64066 4.20169C3.84677 4.13433 4.05198 4.14398 4.25628 4.23065L6.05795 5.06398C6.26031 4.89996 6.49899 4.73961 6.77399 4.58294C7.04899 4.42627 7.3085 4.30954 7.55253 4.23273L7.86503 2.24857C7.89281 2.03759 7.98725 1.86628 8.14836 1.73461C8.30948 1.60294 8.49385 1.53711 8.70149 1.53711H11.2994C11.507 1.53711 11.6914 1.60294 11.8525 1.73461C12.0136 1.86628 12.1081 2.03759 12.1359 2.24857L12.4484 4.2119C12.6924 4.30259 12.9554 4.4228 13.2373 4.57252C13.5193 4.72225 13.7578 4.88607 13.9529 5.06398L15.7396 4.23065C15.9441 4.14398 16.1466 4.13433 16.3473 4.20169C16.5482 4.26919 16.7058 4.39655 16.8202 4.58378L18.124 6.88002C18.2384 7.07058 18.2713 7.27232 18.2227 7.48523C18.1741 7.69829 18.0599 7.86371 17.88 7.98148L16.2134 9.16398C16.2378 9.29287 16.2543 9.43218 16.2629 9.5819C16.2716 9.73176 16.2759 9.87114 16.2759 10C16.2759 10.1289 16.2716 10.2648 16.2629 10.4077C16.2543 10.5505 16.2378 10.6863 16.2134 10.8152L17.88 12.0186C18.0599 12.1363 18.1741 12.3018 18.2227 12.5148C18.2713 12.7277 18.2384 12.9295 18.124 13.12L16.8411 15.4163C16.7266 15.6068 16.5663 15.735 16.3602 15.8006C16.1541 15.8665 15.9489 15.8561 15.7446 15.7694L13.9479 14.9361C13.7423 15.1034 13.5054 15.2689 13.2373 15.4325C12.9693 15.5961 12.7063 15.7163 12.4484 15.7931L12.1359 17.7563C12.1081 17.9641 12.0136 18.1329 11.8525 18.2629C11.6914 18.3929 11.507 18.4579 11.2994 18.4579H8.70149ZM9.12357 17.0386H10.8723L11.169 14.7102C11.6307 14.5991 12.0688 14.4255 12.4834 14.1894C12.8981 13.9533 13.2721 13.6636 13.6054 13.3202L15.8138 14.2786L16.6023 12.8434L14.654 11.4159C14.7095 11.1764 14.7555 10.9404 14.7919 10.7079C14.8283 10.4754 14.8465 10.2395 14.8465 10C14.8465 9.76058 14.8318 9.52461 14.8023 9.29211C14.7729 9.05961 14.7234 8.82364 14.654 8.58419L16.6073 7.15669L15.8138 5.72148L13.6104 6.67982C13.291 6.31204 12.9266 6.00412 12.5171 5.75607C12.1078 5.50801 11.6584 5.35093 11.169 5.28482L10.8773 2.96148H9.12357L8.83691 5.28482C8.35802 5.37871 7.91045 5.54621 7.4942 5.78732C7.07781 6.02843 6.70823 6.32593 6.38545 6.67982L4.18711 5.72148L3.39357 7.15669L5.33691 8.57919C5.28135 8.81864 5.23538 9.05544 5.19899 9.28961C5.1626 9.52378 5.14441 9.76058 5.14441 10C5.14441 10.2395 5.1626 10.4771 5.19899 10.7129C5.23538 10.9488 5.28135 11.1847 5.33691 11.4209L3.39357 12.8434L4.18711 14.2786L6.38545 13.3202C6.72212 13.6602 7.09864 13.95 7.51503 14.1894C7.93128 14.4288 8.37191 14.6041 8.83691 14.7152L9.12357 17.0386ZM9.99045 12.7084C10.7404 12.7084 11.3793 12.4445 11.9071 11.9167C12.4349 11.3889 12.6988 10.75 12.6988 10C12.6988 9.25002 12.4349 8.61114 11.9071 8.08336C11.3793 7.55558 10.7404 7.29169 9.99045 7.29169C9.24045 7.29169 8.60156 7.55558 8.07378 8.08336C7.546 8.61114 7.28211 9.25002 7.28211 10C7.28211 10.75 7.546 11.3889 8.07378 11.9167C8.60156 12.4445 9.24045 12.7084 9.99045 12.7084Z" fill="white" stroke="white" stroke-width="0.1" mask="url(#path-1-inside-1_10624_37110)"/>
</svg>
