<svg width="25" height="24" viewBox="0 0 25 24" fill="none" xmlns="http://www.w3.org/2000/svg">
<path d="M5.67884 22.1495C5.21884 22.1495 4.82 21.9806 4.48234 21.6427C4.1445 21.3051 3.97559 20.9062 3.97559 20.4462V7.62548C3.97559 7.16382 4.1445 6.76357 4.48234 6.42473C4.82 6.08573 5.21884 5.91623 5.67884 5.91623H8.27334V5.66623C8.28134 4.5964 8.6575 3.69198 9.40184 2.95298C10.146 2.21398 11.0534 1.84448 12.1241 1.84448C13.1948 1.84448 14.1025 2.21398 14.8473 2.95298C15.5923 3.69198 15.9688 4.5964 15.9768 5.66623V5.91623H18.5713C19.033 5.91623 19.4333 6.08573 19.7721 6.42473C20.1111 6.76357 20.2806 7.16382 20.2806 7.62548V20.4462C20.2806 20.9062 20.1111 21.3051 19.7721 21.6427C19.4333 21.9806 19.033 22.1495 18.5713 22.1495H5.67884ZM5.67884 20.4462H18.5713V7.62548H15.9768V9.77398C15.9768 10.0143 15.8945 10.2163 15.7298 10.38C15.5653 10.5436 15.3623 10.6255 15.1206 10.6255C14.8791 10.6255 14.6775 10.5436 14.5158 10.38C14.3542 10.2163 14.2733 10.0143 14.2733 9.77398V7.62548H9.97684V9.77398C9.97684 10.0143 9.8945 10.2163 9.72984 10.38C9.56534 10.5436 9.36225 10.6255 9.12059 10.6255C8.87909 10.6255 8.6775 10.5436 8.51584 10.38C8.35417 10.2163 8.27334 10.0143 8.27334 9.77398V7.62548H5.67884V20.4462ZM9.98258 5.91623H14.2676V5.66623C14.2596 5.07273 14.0497 4.57231 13.6378 4.16498C13.226 3.75748 12.7216 3.55373 12.1246 3.55373C11.5274 3.55373 11.0232 3.75748 10.6118 4.16498C10.2003 4.57231 9.99059 5.07273 9.98258 5.66623V5.91623Z" fill="white"/>
</svg>
