<svg width="400" height="110" viewBox="0 0 400 110" fill="none" xmlns="http://www.w3.org/2000/svg">
<path d="M0 0L11.1111 0.640771C22.2222 1.31715 44.4444 2.5987 66.6667 6.69254C88.8889 10.7864 111.111 17.6925 133.333 21.7152C155.556 25.7378 177.778 26.9482 200 23.9223C222.222 20.8964 244.444 13.6343 266.667 11.9968C288.889 10.3236 311.111 14.2395 333.333 13.5275C355.556 12.8155 377.778 7.47572 388.889 4.80582L400 2.13592V109.644H388.889C377.778 109.644 355.556 109.644 333.333 109.644C311.111 109.644 288.889 109.644 266.667 109.644C244.444 109.644 222.222 109.644 200 109.644C177.778 109.644 155.556 109.644 133.333 109.644C111.111 109.644 88.8889 109.644 66.6667 109.644C44.4444 109.644 22.2222 109.644 11.1111 109.644H0V0Z" fill="#EAFE9D"/>
<path d="M0 50.9559L11.1111 51.5642C22.2222 52.1368 44.4444 53.3534 66.6667 51.2422C88.8889 49.1667 111.111 43.799 133.333 43.7274C155.556 43.6917 177.778 48.9162 200 50.1328C222.222 51.3137 244.444 48.451 266.667 46.5902C288.889 44.7652 311.111 43.9064 333.333 42.475C355.556 41.0436 377.778 39.0397 388.889 38.002L400 37V110H388.889C377.778 110 355.556 110 333.333 110C311.111 110 288.889 110 266.667 110C244.444 110 222.222 110 200 110C177.778 110 155.556 110 133.333 110C111.111 110 88.8889 110 66.6667 110C44.4444 110 22.2222 110 11.1111 110H0V50.9559Z" fill="#D9FB58"/>
<path d="M0 65.291L11.1111 63.003C22.2222 60.7149 44.4444 56.1388 66.6667 56.9132C88.8889 57.6525 111.111 63.7774 133.333 62.827C155.556 61.8765 177.778 53.9212 200 49.6267C222.222 45.3322 244.444 44.769 266.667 47.6907C288.889 50.6123 311.111 57.0892 333.333 58.0749C355.556 59.0605 377.778 54.6252 388.889 52.3724L400 50.1547V109.644H388.889C377.778 109.644 355.556 109.644 333.333 109.644C311.111 109.644 288.889 109.644 266.667 109.644C244.444 109.644 222.222 109.644 200 109.644C177.778 109.644 155.556 109.644 133.333 109.644C111.111 109.644 88.8889 109.644 66.6667 109.644C44.4444 109.644 22.2222 109.644 11.1111 109.644H0V65.291Z" fill="#C9EA44"/>
<path d="M0 76.6948L11.1111 77.8285C22.2222 78.9268 44.4444 81.1943 66.6667 82.4343C88.8889 83.6743 111.111 83.8869 133.333 82.3634C155.556 80.84 177.778 77.5096 200 77.6514C222.222 77.7577 244.444 81.3006 266.667 84.3829C288.889 87.4298 311.111 90.0516 333.333 87.0755C355.556 84.1349 377.778 75.6319 388.889 71.3804L400 67.1289V109.644H388.889C377.778 109.644 355.556 109.644 333.333 109.644C311.111 109.644 288.889 109.644 266.667 109.644C244.444 109.644 222.222 109.644 200 109.644C177.778 109.644 155.556 109.644 133.333 109.644C111.111 109.644 88.8889 109.644 66.6667 109.644C44.4444 109.644 22.2222 109.644 11.1111 109.644H0V76.6948Z" fill="#A5C232"/>
</svg>
