<svg width="400" height="102" viewBox="0 0 400 102" fill="none" xmlns="http://www.w3.org/2000/svg">
<path d="M0 0H9.55556C19.1111 0 38.2222 0 57.2444 4.79091C76.3111 9.58182 95.2444 19.1636 114.311 23.1818C133.333 27.2 152.444 25.6545 171.467 21.3273C190.533 17 209.467 9.89091 228.533 8.80909C247.556 7.72727 266.667 12.6727 285.689 16.4436C304.756 20.1836 323.689 22.78 342.756 22.2545C361.778 21.7291 380.889 18.1436 390.444 16.32L400 14.5273V102H390.444C380.889 102 361.778 102 342.756 102C323.689 102 304.756 102 285.689 102C266.667 102 247.556 102 228.533 102C209.467 102 190.533 102 171.467 102C152.444 102 133.333 102 114.311 102C95.2444 102 76.3111 102 57.2444 102C38.2222 102 19.1111 102 9.55556 102H0V0Z" fill="#96A1EF"/>
<path d="M0 26.5944L9.55556 26.9945C19.1111 27.4254 38.2222 28.2256 57.2444 27.9178C76.3111 27.6101 95.2444 26.1943 114.311 29.426C133.333 32.6576 152.444 40.5367 171.467 42.6912C190.533 44.8456 209.467 41.2754 228.533 36.1355C247.556 30.9956 266.667 24.3476 285.689 24.2861C304.756 24.2245 323.689 30.811 342.756 33.9195C361.778 37.0588 380.889 36.7511 390.444 36.5972L400 36.4433V102H390.444C380.889 102 361.778 102 342.756 102C323.689 102 304.756 102 285.689 102C266.667 102 247.556 102 228.533 102C209.467 102 190.533 102 171.467 102C152.444 102 133.333 102 114.311 102C95.2444 102 76.3111 102 57.2444 102C38.2222 102 19.1111 102 9.55556 102H0V26.5944Z" fill="#7D8DEA"/>
<path d="M0 47.2848L9.55556 47.9879C19.1111 48.7215 38.2222 50.1276 57.2444 47.7433C76.3111 45.3591 95.2444 39.1234 114.311 39.9487C133.333 40.774 152.444 48.5992 171.467 53.0926C190.533 57.5859 209.467 58.6863 228.533 56.6078C247.556 54.5292 266.667 49.2105 285.689 44.7478C304.756 40.2544 323.689 36.5863 342.756 36.4335C361.778 36.2807 380.889 39.643 390.444 41.3242L400 43.0054V102H390.444C380.889 102 361.778 102 342.756 102C323.689 102 304.756 102 285.689 102C266.667 102 247.556 102 228.533 102C209.467 102 190.533 102 171.467 102C152.444 102 133.333 102 114.311 102C95.2444 102 76.3111 102 57.2444 102C38.2222 102 19.1111 102 9.55556 102H0V47.2848Z" fill="#6279E5"/>
<path d="M0 52.2144L9.55556 54.5519C19.1111 56.859 38.2222 61.534 57.2444 63.0822C76.3111 64.6608 95.2444 63.1429 114.311 64.9644C133.333 66.7858 152.444 71.9465 171.467 73.2215C190.533 74.4661 209.467 71.8554 228.533 71.0358C247.556 70.2161 266.667 71.2483 285.689 68.5161C304.756 65.784 323.689 59.2876 342.756 59.1358C361.778 58.984 380.889 65.1768 390.444 68.2429L400 71.3394V102H390.444C380.889 102 361.778 102 342.756 102C323.689 102 304.756 102 285.689 102C266.667 102 247.556 102 228.533 102C209.467 102 190.533 102 171.467 102C152.444 102 133.333 102 114.311 102C95.2444 102 76.3111 102 57.2444 102C38.2222 102 19.1111 102 9.55556 102H0V52.2144Z" fill="#5467C8"/>
</svg>
