<svg width="401" height="148" viewBox="0 0 401 148" fill="none" xmlns="http://www.w3.org/2000/svg">
<path d="M0.554688 2.97701L11.6658 6.0816C22.7769 9.22873 44.9991 15.4379 67.2214 19.9885C89.4436 24.5391 111.666 27.346 133.888 27.9414C156.11 28.4943 178.332 26.7931 200.555 28.4092C222.777 30.0678 244.999 35.0011 267.221 32.3218C289.444 29.6425 311.666 19.2655 333.888 12.631C356.11 5.95403 378.332 2.97701 389.444 1.48851L400.555 0V148H389.444C378.332 148 356.11 148 333.888 148C311.666 148 289.444 148 267.221 148C244.999 148 222.777 148 200.555 148C178.332 148 156.11 148 133.888 148C111.666 148 89.4436 148 67.2214 148C44.9991 148 22.7769 148 11.6658 148H0.554688V2.97701Z" fill="#FF91C4"/>
<path d="M0.554688 48.9136L11.6658 50.6444C22.7769 52.3383 44.9991 55.7999 67.2214 52.7066C89.4436 49.6501 111.666 40.0756 133.888 40.3702C156.11 40.7016 178.332 50.8653 200.555 56.5364C222.777 62.1706 244.999 63.2754 267.221 63.0913C289.444 62.9071 311.666 61.4341 333.888 58.3777C356.11 55.2844 378.332 50.6444 389.444 48.2876L400.555 45.9676V121.091H389.444C378.332 121.091 356.11 121.091 333.888 121.091C311.666 121.091 289.444 121.091 267.221 121.091C244.999 121.091 222.777 121.091 200.555 121.091C178.332 121.091 156.11 121.091 133.888 121.091C111.666 121.091 89.4436 121.091 67.2214 121.091C44.9991 121.091 22.7769 121.091 11.6658 121.091H0.554688V48.9136Z" fill="#FF6BAF"/>
<path d="M0.554688 79.0741L11.6658 79.4166C22.7769 79.8019 44.9991 80.4869 67.2214 82.1565C89.4436 83.7834 111.666 86.352 133.888 90.3335C156.11 94.3577 178.332 99.7519 200.555 97.911C222.777 96.0701 244.999 86.9086 267.221 80.6582C289.444 74.3649 311.666 70.94 333.888 71.9247C356.11 72.9522 378.332 78.3464 389.444 81.0863L400.555 83.7834V148H389.444C378.332 148 356.11 148 333.888 148C311.666 148 289.444 148 267.221 148C244.999 148 222.777 148 200.555 148C178.332 148 156.11 148 133.888 148C111.666 148 89.4436 148 67.2214 148C44.9991 148 22.7769 148 11.6658 148H0.554688V79.0741Z" fill="#EA4B94"/>
<path d="M0.554688 108.516L11.6658 109.763C22.7769 111.01 44.9991 113.503 67.2214 115.872C89.4436 118.2 111.666 120.444 133.888 121.691C156.11 122.938 178.332 123.187 200.555 121.816C222.777 120.444 244.999 117.369 267.221 116.953C289.444 116.537 311.666 118.782 333.888 116.33C356.11 113.919 378.332 106.853 389.444 103.321L400.555 99.7878V148H389.444C378.332 148 356.11 148 333.888 148C311.666 148 289.444 148 267.221 148C244.999 148 222.777 148 200.555 148C178.332 148 156.11 148 133.888 148C111.666 148 89.4436 148 67.2214 148C44.9991 148 22.7769 148 11.6658 148H0.554688V108.516Z" fill="#C23876"/>
</svg>
