<svg width="400" height="171" viewBox="0 0 400 171" fill="none" xmlns="http://www.w3.org/2000/svg">
<path d="M0 30.7927L11.1111 27.6668C22.2222 24.5875 44.4444 18.3357 66.6667 16.7027C88.8889 15.0698 111.111 18.0557 133.333 14.9298C155.556 11.8039 177.778 2.65938 200 4.75888C222.222 6.85839 244.444 13.9515 266.667 23.376C288.889 32.8004 311.111 33.2655 333.333 27.6668C355.556 22.0681 377.778 16.6561 388.889 8.30471L400 0V149.765H388.889C377.778 149.765 355.556 149.765 333.333 149.765C311.111 149.765 288.889 149.765 266.667 149.765C244.444 149.765 222.222 149.765 200 149.765C177.778 149.765 155.556 149.765 133.333 149.765C111.111 149.765 88.8889 149.765 66.6667 149.765C44.4444 149.765 22.2222 149.765 11.1111 149.765H0V30.7927Z" fill="#FFA775"/>
<path d="M0 76.1344L11.1111 72.0987C22.2222 68.0272 44.4444 59.9558 66.6667 60.9558C88.8889 61.9558 111.111 72.0987 133.333 71.2058C155.556 70.313 177.778 58.3844 200 55.6701C222.222 52.9201 244.444 59.3487 266.667 62.2772C288.889 65.1701 311.111 64.5987 333.333 61.063C355.556 57.563 377.778 51.1344 388.889 47.9201L400 44.7058V139.706H388.889C377.778 139.706 355.556 139.706 333.333 139.706C311.111 139.706 288.889 139.706 266.667 139.706C244.444 139.706 222.222 139.706 200 139.706C177.778 139.706 155.556 139.706 133.333 139.706C111.111 139.706 88.8889 139.706 66.6667 139.706C44.4444 139.706 22.2222 139.706 11.1111 139.706H0V76.1344Z" fill="#FE8C4E"/>
<path d="M0 116.292L11.1111 112.121C22.2222 107.915 44.4444 99.5741 66.6667 98.9732C88.8889 98.3723 111.111 105.583 133.333 106.29C155.556 106.996 177.778 101.2 200 97.312C222.222 93.4241 244.444 91.4448 266.667 93.7422C288.889 96.0396 311.111 102.614 333.333 103.674C355.556 104.734 377.778 100.281 388.889 98.0189L400 95.7922V158.706H388.889C377.778 158.706 355.556 158.706 333.333 158.706C311.111 158.706 288.889 158.706 266.667 158.706C244.444 158.706 222.222 158.706 200 158.706C177.778 158.706 155.556 158.706 133.333 158.706C111.111 158.706 88.8889 158.706 66.6667 158.706C44.4444 158.706 22.2222 158.706 11.1111 158.706H0V116.292Z" fill="#E77234"/>
<path d="M0 146.305L11.1111 146.058C22.2222 145.846 44.4444 145.352 66.6667 143.659C88.8889 141.965 111.111 139.002 133.333 136.144C155.556 133.252 177.778 130.429 200 132.722C222.222 135.015 244.444 142.424 266.667 144.894C288.889 147.363 311.111 144.894 333.333 143.059C355.556 141.26 377.778 140.06 388.889 139.496L400 138.896V171H388.889C377.778 171 355.556 171 333.333 171C311.111 171 288.889 171 266.667 171C244.444 171 222.222 171 200 171C177.778 171 155.556 171 133.333 171C111.111 171 88.8889 171 66.6667 171C44.4444 171 22.2222 171 11.1111 171H0V146.305Z" fill="#BE5B28"/>
</svg>
