<svg width="400" height="168" viewBox="0 0 400 168" fill="none" xmlns="http://www.w3.org/2000/svg">
<rect width="400" height="168" fill="#EBF8D5"/>
<path d="M0 0L11.1111 0.975967C22.2222 2.00616 44.4444 3.95811 66.6667 10.1935C88.8889 16.4289 111.111 26.9477 133.333 33.0747C155.556 39.2016 177.778 41.0451 200 36.4364C222.222 31.8276 244.444 20.7666 266.667 18.2724C288.889 15.724 311.111 21.6883 333.333 20.6039C355.556 19.5195 377.778 11.3864 388.889 7.3198L400 3.25325V167H388.889C377.778 167 355.556 167 333.333 167C311.111 167 288.889 167 266.667 167C244.444 167 222.222 167 200 167C177.778 167 155.556 167 133.333 167C111.111 167 88.8889 167 66.6667 167C44.4444 167 22.2222 167 11.1111 167H0V0Z" fill="#EAFE9D"/>
<path d="M0 66.8971L11.1111 67.9387C22.2222 68.9191 44.4444 71.0024 66.6667 67.3872C88.8889 63.8333 111.111 54.6421 133.333 54.5196C155.556 54.4583 177.778 63.4044 200 65.4878C222.222 67.5098 244.444 62.6078 266.667 59.4216C288.889 56.2966 311.111 54.826 333.333 52.375C355.556 49.924 377.778 46.4926 388.889 44.7157L400 43V168H388.889C377.778 168 355.556 168 333.333 168C311.111 168 288.889 168 266.667 168C244.444 168 222.222 168 200 168C177.778 168 155.556 168 133.333 168C111.111 168 88.8889 168 66.6667 168C44.4444 168 22.2222 168 11.1111 168H0V66.8971Z" fill="#D9FB58"/>
<path d="M0 91.1921L11.1111 87.2814C22.2222 83.3707 44.4444 75.5492 66.6667 76.8729C88.8889 78.1363 111.111 88.605 133.333 86.9806C155.556 85.3561 177.778 71.7588 200 64.4187C222.222 57.0786 244.444 56.1159 266.667 61.1096C288.889 66.1033 311.111 77.1737 333.333 78.8583C355.556 80.5429 377.778 72.9621 388.889 69.1116L400 65.3212V167H388.889C377.778 167 355.556 167 333.333 167C311.111 167 288.889 167 266.667 167C244.444 167 222.222 167 200 167C177.778 167 155.556 167 133.333 167C111.111 167 88.8889 167 66.6667 167C44.4444 167 22.2222 167 11.1111 167H0V91.1921Z" fill="#C9EA44"/>
<path d="M0 112.2L11.1111 114.12C22.2222 115.98 44.4444 119.82 66.6667 121.92C88.8889 124.02 111.111 124.38 133.333 121.8C155.556 119.22 177.778 113.58 200 113.82C222.222 114 244.444 120 266.667 125.22C288.889 130.38 311.111 134.82 333.333 129.78C355.556 124.8 377.778 110.4 388.889 103.2L400 96V168H388.889C377.778 168 355.556 168 333.333 168C311.111 168 288.889 168 266.667 168C244.444 168 222.222 168 200 168C177.778 168 155.556 168 133.333 168C111.111 168 88.8889 168 66.6667 168C44.4444 168 22.2222 168 11.1111 168H0V112.2Z" fill="#A5C232"/>
</svg>
