<svg width="400" height="183" viewBox="0 0 400 183" fill="none" xmlns="http://www.w3.org/2000/svg">
<rect width="400" height="183" fill="#C4CEFF"/>
<path d="M0 0H9.55556C19.1111 0 38.2222 0 57.2444 7.89091C76.3111 15.7818 95.2445 31.5636 114.311 38.1818C133.333 44.8 152.444 42.2545 171.467 35.1273C190.533 28 209.467 16.2909 228.533 14.5091C247.556 12.7273 266.667 20.8727 285.689 27.0836C304.756 33.2436 323.689 37.52 342.756 36.6545C361.778 35.7891 380.889 29.8836 390.444 26.88L400 23.9273V168H390.444C380.889 168 361.778 168 342.756 168C323.689 168 304.756 168 285.689 168C266.667 168 247.556 168 228.533 168C209.467 168 190.533 168 171.467 168C152.444 168 133.333 168 114.311 168C95.2445 168 76.3111 168 57.2444 168C38.2222 168 19.1111 168 9.55556 168H0V0Z" fill="#96A1EF"/>
<path d="M0 58.8027L9.55556 59.4617C19.1111 60.1714 38.2222 61.4894 57.2444 60.9824C76.3111 60.4755 95.2444 58.1437 114.311 63.4664C133.333 68.7892 152.444 81.7665 171.467 85.315C190.533 88.8635 209.467 82.9831 228.533 74.5174C247.556 66.0517 266.667 55.1021 285.689 55.0007C304.756 54.8993 323.689 65.7476 342.756 70.8675C361.778 76.0382 380.889 75.5313 390.444 75.2778L400 75.0244V183H390.444C380.889 183 361.778 183 342.756 183C323.689 183 304.756 183 285.689 183C266.667 183 247.556 183 228.533 183C209.467 183 190.533 183 171.467 183C152.444 183 133.333 183 114.311 183C95.2444 183 76.3111 183 57.2444 183C38.2222 183 19.1111 183 9.55556 183H0V58.8027Z" fill="#7D8DEA"/>
<path d="M0 92.8811L9.55556 94.039C19.1111 95.2473 38.2222 97.5632 57.2444 93.6362C76.3111 89.7093 95.2444 79.4387 114.311 80.7981C133.333 82.1574 152.444 95.0459 171.467 102.447C190.533 109.848 209.467 111.66 228.533 108.237C247.556 104.813 266.667 96.0528 285.689 88.7024C304.756 81.3015 323.689 75.26 342.756 75.0083C361.778 74.7566 380.889 80.2946 390.444 83.0636L400 85.8326V183H390.444C380.889 183 361.778 183 342.756 183C323.689 183 304.756 183 285.689 183C266.667 183 247.556 183 228.533 183C209.467 183 190.533 183 171.467 183C152.444 183 133.333 183 114.311 183C95.2444 183 76.3111 183 57.2444 183C38.2222 183 19.1111 183 9.55556 183H0V92.8811Z" fill="#6279E5"/>
<path d="M0 101L9.55556 104.85C19.1111 108.65 38.2222 116.35 57.2444 118.9C76.3111 121.5 95.2445 119 114.311 122C133.333 125 152.444 133.5 171.467 135.6C190.533 137.65 209.467 133.35 228.533 132C247.556 130.65 266.667 132.35 285.689 127.85C304.756 123.35 323.689 112.65 342.756 112.4C361.778 112.15 380.889 122.35 390.444 127.4L400 132.5V183H390.444C380.889 183 361.778 183 342.756 183C323.689 183 304.756 183 285.689 183C266.667 183 247.556 183 228.533 183C209.467 183 190.533 183 171.467 183C152.444 183 133.333 183 114.311 183C95.2445 183 76.3111 183 57.2444 183C38.2222 183 19.1111 183 9.55556 183H0V101Z" fill="#5467C8"/>
</svg>
