<svg width="400" height="185" viewBox="0 0 400 185" fill="none" xmlns="http://www.w3.org/2000/svg">
<rect width="400" height="185" fill="#FFA5D0"/>
<path d="M0 3.72126L11.1111 7.602C22.2222 11.5359 44.4444 19.2974 66.6667 24.9856C88.8889 30.6739 111.111 34.1825 133.333 34.9267C155.556 35.6178 177.778 33.4914 200 35.5115C222.222 37.5848 244.444 43.7514 266.667 40.4023C288.889 37.0532 311.111 24.0819 333.333 15.7888C355.556 7.44254 377.778 3.72126 388.889 1.86063L400 0V185H388.889C377.778 185 355.556 185 333.333 185C311.111 185 288.889 185 266.667 185C244.444 185 222.222 185 200 185C177.778 185 155.556 185 133.333 185C111.111 185 88.8889 185 66.6667 185C44.4444 185 22.2222 185 11.1111 185H0V3.72126Z" fill="#FF91C4"/>
<path d="M0 60.6972L11.1111 62.8627C22.2222 64.982 44.4444 69.3128 66.6667 65.4427C88.8889 61.6187 111.111 49.6397 133.333 50.0083C155.556 50.423 177.778 63.1391 200 70.2343C222.222 77.2835 244.444 78.6656 266.667 78.4353C288.889 78.2049 311.111 76.362 333.333 72.538C355.556 68.6678 377.778 62.8626 388.889 59.914L400 57.0114V151H388.889C377.778 151 355.556 151 333.333 151C311.111 151 288.889 151 266.667 151C244.444 151 222.222 151 200 151C177.778 151 155.556 151 133.333 151C111.111 151 88.8889 151 66.6667 151C44.4444 151 22.2222 151 11.1111 151H0V60.6972Z" fill="#FF6BAF"/>
<path d="M0 99.1166L11.1111 99.5434C22.2222 100.023 44.4444 100.877 66.6667 102.957C88.8889 104.984 111.111 108.185 133.333 113.146C155.556 118.16 177.778 124.882 200 122.588C222.222 120.294 244.444 108.879 266.667 101.09C288.889 93.2488 311.111 88.9813 333.333 90.2082C355.556 91.4885 377.778 98.2098 388.889 101.624L400 104.984V185H388.889C377.778 185 355.556 185 333.333 185C311.111 185 288.889 185 266.667 185C244.444 185 222.222 185 200 185C177.778 185 155.556 185 133.333 185C111.111 185 88.8889 185 66.6667 185C44.4444 185 22.2222 185 11.1111 185H0V99.1166Z" fill="#EA4B94"/>
<path d="M0 135.862L11.1111 137.414C22.2222 138.966 44.4444 142.069 66.6667 145.017C88.8889 147.914 111.111 150.707 133.333 152.259C155.556 153.81 177.778 154.121 200 152.414C222.222 150.707 244.444 146.879 266.667 146.362C288.889 145.845 311.111 148.638 333.333 145.586C355.556 142.586 377.778 133.793 388.889 129.397L400 125V185H388.889C377.778 185 355.556 185 333.333 185C311.111 185 288.889 185 266.667 185C244.444 185 222.222 185 200 185C177.778 185 155.556 185 133.333 185C111.111 185 88.8889 185 66.6667 185C44.4444 185 22.2222 185 11.1111 185H0V135.862Z" fill="#C23876"/>
</svg>
